# Blender 4.2.1 LTS
# www.blender.org
mtllib tree_trunk.mtl
o Cylinder
v 0.000000 -3.228750 -0.593904
v 0.000000 3.228750 -0.366096
v 0.564837 -3.228750 -0.183527
v 0.348178 3.228750 -0.113130
v 0.349088 -3.228750 0.480479
v 0.215186 3.228750 0.296178
v -0.349088 -3.228750 0.480479
v -0.215186 3.228750 0.296178
v -0.564837 -3.228750 -0.183527
v -0.348178 3.228750 -0.113130
vn 0.5875 0.0285 -0.8087
vn 0.9507 0.0285 0.3089
vn -0.0000 0.0285 0.9996
vn -0.0000 1.0000 -0.0000
vn -0.9507 0.0285 0.3089
vn -0.5875 0.0285 -0.8087
vn -0.0000 -1.0000 -0.0000
vt 0.713910 0.059707
vt 0.945322 0.059707
vt 0.945322 0.152272
vt 0.713910 0.152272
vt 0.945322 0.244837
vt 0.714542 0.244778
vt 0.945322 0.337402
vt 0.713910 0.337402
vt 0.914851 0.629551
vt 0.838098 0.735192
vt 0.713909 0.694841
vt 0.713909 0.564261
vt 0.838098 0.523910
vt 0.945322 0.429967
vt 0.713910 0.429967
vt 0.945322 0.522532
vt 0.713910 0.522532
vt 0.914852 0.842211
vt 0.838099 0.736570
vt 0.713910 0.776921
vt 0.713910 0.907501
vt 0.838099 0.947853
s 0
f 1/1/1 2/2/1 4/3/1 3/4/1
f 3/4/2 4/3/2 6/5/2 5/6/2
f 5/6/3 6/5/3 8/7/3 7/8/3
f 4/9/4 2/10/4 10/11/4 8/12/4 6/13/4
f 7/8/5 8/7/5 10/14/5 9/15/5
f 9/15/6 10/14/6 2/16/6 1/17/6
f 1/18/7 3/19/7 5/20/7 7/21/7 9/22/7
